<?xml version="1.0" encoding="utf-8"?><!--Generator: Adobe Illustrator 28.2.0, SVG Export Plug-In . SVG Version: 6.00 Build 0)--><svg version="1.1" id="Layer_1" xmlns="http://www.w3.org/2000/svg" xmlns:xlink="http://www.w3.org/1999/xlink" x="0px" y="0px" viewBox="0 0 195 27.2" style="enable-background:new 0 0 195 27.2" xml:space="preserve"><style type="text/css">.st0{clip-path:url(#SVGID_00000165194300261980442760000002943035449368234662_);}
	.st1{fill:#F4F4F4;}</style><g><defs><rect id="SVGID_1_" width="195.1" height="27"/></defs><clipPath id="SVGID_00000119839691629393021490000012730301943182627727_"><use xlink:href="#SVGID_1_" style="overflow:visible"/></clipPath><g style="clip-path:url(#SVGID_00000119839691629393021490000012730301943182627727_)"><path class="st1" d="M48,21.6C48,21.6,48,21.6,48,21.6c3.7,0,7.4-0.5,10.8-1.4c-1.6-1.6-3.2-3-4.9-4.3C51.9,17.6,50,19.5,48,21.6z
			"/><path class="st1" d="M0,0.4c0,0,21.8-1.9,42,15.4c2-1.6,4-3,5.9-4.3C24.8-3.4,0,0.4,0,0.4z"/><path class="st1" d="M42,15.8c-1.6,1.3-3.3,2.8-4.9,4.3c3.4,0.9,7.1,1.4,10.8,1.4C46,19.5,44,17.6,42,15.8z"/><path class="st1" d="M96,0.4c0,0-24.8-3.8-48,11.1c2,1.3,4,2.7,5.9,4.3C74.2-1.5,96,0.4,96,0.4z"/><path class="st1" d="M90.5,14.5v12.4h-2.4v-5.1h-8.5v5.1h-2.4V14.5h2.4v5.1h8.5v-5.1H90.5z"/><path class="st1" d="M106.9,26.8h-2.6l-1.1-2.4h-8l-1.1,2.4h-2.6l5.2-11.2c0.5-1.1,1.5-1.2,2.5-1.2c0.9,0,1.9,0.1,2.5,1.2
			L106.9,26.8z M102.3,22.4l-2.6-5.5c-0.1-0.2-0.2-0.2-0.5-0.2c-0.2,0-0.3,0-0.5,0.2l-2.6,5.5H102.3z"/><path class="st1" d="M129.1,14.5c-0.4,1.1-3.3,10.9-3.4,11.1c-0.2,0.7-0.9,1.3-1.7,1.3h-1.1c-0.8,0-1.5-0.4-1.8-1.3l-2.3-8.3
			c-0.1-0.2-0.1-0.4-0.3-0.4c-0.2,0-0.2,0.2-0.3,0.4l-2.3,8.3c-0.3,1-1.1,1.3-1.8,1.3h-1.1c-0.9,0-1.5-0.6-1.7-1.3
			c-0.1-0.2-2.9-9.9-3.4-11.1h2.4c0.6,1.7,2.9,9.7,3,9.9c0.1,0.2,0.1,0.3,0.2,0.3c0,0,0.2,0,0.2,0c0.1,0,0.2-0.2,0.2-0.3
			c0.3-1,2.3-8.3,2.3-8.3c0.4-1.3,1.5-1.5,2.3-1.5c0.7,0,1.9,0.2,2.3,1.5c0,0,2,7.3,2.3,8.3c0,0.1,0.1,0.3,0.2,0.3c0,0,0.2,0,0.2,0
			c0.1,0,0.2-0.2,0.2-0.3c0.1-0.2,2.4-8.2,3-9.9H129.1z"/><path class="st1" d="M144.1,26.8H141l-5.5-5.6l-3,2.6v3h-2.4V14.5h2.4V21l7.6-6.5h3.2l-6.1,5.3L144.1,26.8z"/><path class="st1" d="M150.8,19.6h-5.7v2.1h5.7V19.6z"/><path class="st1" d="M154.2,17.7v1.9h9.6v2.1h-9.6v1.9c0,1,0.2,1.1,1.2,1.1h9v2.1h-9.6c-1.9,0-3-0.6-3-3v-6.4c0-2.3,1-3,3-3h9.6
			v2.1h-9C154.5,16.6,154.2,16.7,154.2,17.7z"/><path class="st1" d="M174.2,21.6v5.2h-2.4v-5.2l-6.4-7.2h2.9l4.7,5.2l4.7-5.2h2.9L174.2,21.6z"/><path class="st1" d="M184,17.7v1.9h9.6v2.1H184v1.9c0,1,0.2,1.1,1.2,1.1h9v2.1h-9.6c-1.9,0-3-0.6-3-3v-6.4c0-2.3,1-3,3-3h9.6v2.1
			h-9C184.3,16.6,184,16.7,184,17.7z"/></g></g></svg>