<svg width="82" height="20" fill="none" xmlns="http://www.w3.org/2000/svg"><path d="M41.0074 19.1788C41.0001 19.1788 41.0001 19.1788 41.0074 19.1788C44.2024 19.1788 47.2949 18.7538 50.248 17.9697C48.885 16.6433 47.5 15.4122 46.0931 14.2764C44.371 15.742 42.6709 17.3688 41.0074 19.1788Z" fill="#FF6600"/><path d="M0 1.1004C0 1.1004 18.5984 -0.563045 35.9071 14.2761C37.5852 12.9204 39.2853 11.704 40.9927 10.6048C21.1852 -2.16054 0 1.1004 0 1.1004Z" fill="#FF6600"/><path d="M35.9147 14.2695C34.5078 15.4054 33.1228 16.6365 31.7598 17.9628C34.7056 18.7469 37.8053 19.1719 41.0003 19.1719C39.3222 17.3693 37.6221 15.7425 35.9147 14.2695Z" fill="#FF6600"/><path d="M82 1.10069C82 1.10069 60.8148 -2.16026 41 10.5977C42.7074 11.6969 44.4148 12.9207 46.0856 14.2691C63.3943 -0.562761 82 1.10069 82 1.10069Z" fill="#FF6600"/></svg>